<mxfile host="Electron" modified="2024-05-03T18:54:51.566Z" agent="Mozilla/5.0 (Windows NT 10.0; Win64; x64) AppleWebKit/537.36 (KHTML, like Gecko) draw.io/24.2.5 Chrome/120.0.6099.109 Electron/28.1.0 Safari/537.36" etag="bG0NDohNaQOSCQgHUYIe" version="24.2.5" type="device">
  <diagram name="Page-1" id="p4y114F4zWIUPUv0pF8f">
    <mxGraphModel dx="1434" dy="844" grid="1" gridSize="10" guides="1" tooltips="1" connect="1" arrows="1" fold="1" page="1" pageScale="1" pageWidth="1100" pageHeight="1700" background="#ffffff" math="0" shadow="0">
      <root>
        <mxCell id="0" />
        <mxCell id="1" parent="0" />
        <mxCell id="8hV0YvTT84u8Rgavx3vx-16" value="" style="rounded=0;whiteSpace=wrap;html=1;" vertex="1" parent="1">
          <mxGeometry x="40" y="160" width="930" height="640" as="geometry" />
        </mxCell>
        <mxCell id="8hV0YvTT84u8Rgavx3vx-14" value="CDD&lt;div&gt;&lt;br&gt;&lt;/div&gt;&lt;div&gt;&lt;br&gt;&lt;/div&gt;&lt;div&gt;&lt;br&gt;&lt;/div&gt;&lt;div&gt;&lt;br&gt;&lt;/div&gt;&lt;div&gt;&lt;br&gt;&lt;/div&gt;&lt;div&gt;&lt;br&gt;&lt;/div&gt;&lt;div&gt;&lt;br&gt;&lt;/div&gt;&lt;div&gt;&lt;br&gt;&lt;/div&gt;&lt;div&gt;&lt;br&gt;&lt;/div&gt;&lt;div&gt;&lt;br&gt;&lt;/div&gt;&lt;div&gt;&lt;br&gt;&lt;/div&gt;&lt;div&gt;&lt;br&gt;&lt;/div&gt;&lt;div&gt;&lt;br&gt;&lt;/div&gt;&lt;div&gt;&lt;br&gt;&lt;/div&gt;&lt;div&gt;&lt;br&gt;&lt;/div&gt;&lt;div&gt;&lt;br&gt;&lt;/div&gt;&lt;div&gt;&lt;br&gt;&lt;/div&gt;&lt;div&gt;&lt;br&gt;&lt;/div&gt;&lt;div&gt;&lt;br&gt;&lt;/div&gt;&lt;div&gt;&lt;br&gt;&lt;/div&gt;&lt;div&gt;&lt;br&gt;&lt;/div&gt;&lt;div&gt;&lt;br&gt;&lt;/div&gt;&lt;div&gt;&lt;br&gt;&lt;/div&gt;&lt;div&gt;&lt;br&gt;&lt;/div&gt;&lt;div&gt;&lt;br&gt;&lt;/div&gt;&lt;div&gt;&lt;br&gt;&lt;/div&gt;&lt;div&gt;&lt;br&gt;&lt;/div&gt;&lt;div&gt;&lt;br&gt;&lt;/div&gt;&lt;div&gt;&lt;br&gt;&lt;/div&gt;&lt;div&gt;&lt;br&gt;&lt;/div&gt;&lt;div&gt;&lt;br&gt;&lt;/div&gt;&lt;div&gt;&lt;br&gt;&lt;/div&gt;&lt;div&gt;&lt;br&gt;&lt;/div&gt;" style="rounded=1;whiteSpace=wrap;html=1;" vertex="1" parent="1">
          <mxGeometry x="810" y="180" width="140" height="530" as="geometry" />
        </mxCell>
        <mxCell id="8hV0YvTT84u8Rgavx3vx-1" value="ESP32&lt;div&gt;&amp;amp;&lt;/div&gt;&lt;div&gt;CONNECT BOARD&lt;/div&gt;" style="rounded=1;whiteSpace=wrap;html=1;" vertex="1" parent="1">
          <mxGeometry x="60" y="720" width="730" height="60" as="geometry" />
        </mxCell>
        <mxCell id="8hV0YvTT84u8Rgavx3vx-2" value="esp framework&lt;div&gt;&lt;br&gt;&lt;/div&gt;&lt;div&gt;&lt;br&gt;&lt;/div&gt;&lt;div&gt;&lt;br&gt;&lt;/div&gt;&lt;div&gt;&lt;br&gt;&lt;/div&gt;&lt;div&gt;&lt;br&gt;&lt;/div&gt;&lt;div&gt;&lt;br&gt;&lt;/div&gt;" style="rounded=1;whiteSpace=wrap;html=1;" vertex="1" parent="1">
          <mxGeometry x="60" y="600" width="730" height="110" as="geometry" />
        </mxCell>
        <mxCell id="8hV0YvTT84u8Rgavx3vx-3" value="gpio&lt;div&gt;*&amp;nbsp;gpio_reset_pin&lt;/div&gt;&lt;div&gt;*&amp;nbsp;gpio_set_direction&lt;/div&gt;&lt;div&gt;*&amp;nbsp;gpio_set_level&lt;/div&gt;" style="rounded=1;whiteSpace=wrap;html=1;" vertex="1" parent="1">
          <mxGeometry x="80" y="630" width="120" height="60" as="geometry" />
        </mxCell>
        <mxCell id="8hV0YvTT84u8Rgavx3vx-4" value="FreeRTOS" style="rounded=1;whiteSpace=wrap;html=1;" vertex="1" parent="1">
          <mxGeometry x="820" y="320" width="120" height="60" as="geometry" />
        </mxCell>
        <mxCell id="8hV0YvTT84u8Rgavx3vx-5" value="log&lt;div&gt;*&amp;nbsp;ESP_LOGI&lt;/div&gt;" style="rounded=1;whiteSpace=wrap;html=1;" vertex="1" parent="1">
          <mxGeometry x="630" y="630" width="120" height="60" as="geometry" />
        </mxCell>
        <mxCell id="8hV0YvTT84u8Rgavx3vx-6" value="ECU&lt;div&gt;&lt;br&gt;&lt;/div&gt;&lt;div&gt;&lt;br&gt;&lt;/div&gt;&lt;div&gt;&lt;br&gt;&lt;/div&gt;&lt;div&gt;&lt;br&gt;&lt;/div&gt;&lt;div&gt;&lt;br&gt;&lt;/div&gt;&lt;div&gt;&lt;br&gt;&lt;/div&gt;&lt;div&gt;&lt;br&gt;&lt;/div&gt;&lt;div&gt;&lt;br&gt;&lt;/div&gt;" style="rounded=1;whiteSpace=wrap;html=1;" vertex="1" parent="1">
          <mxGeometry x="60" y="430" width="730" height="160" as="geometry" />
        </mxCell>
        <mxCell id="8hV0YvTT84u8Rgavx3vx-7" value="on_board_leds&lt;div&gt;*&amp;nbsp;on_board_leds_init&lt;/div&gt;&lt;div&gt;*&amp;nbsp;on_board_leds_setLed1Status&lt;/div&gt;&lt;div&gt;*&amp;nbsp;on_board_leds_setLed2Status&lt;/div&gt;&lt;div&gt;*&amp;nbsp;on_board_leds_setLed3Status&lt;/div&gt;&lt;div&gt;*&amp;nbsp;on_board_leds_setLed4Status&lt;/div&gt;" style="rounded=1;whiteSpace=wrap;html=1;" vertex="1" parent="1">
          <mxGeometry x="80" y="470" width="220" height="110" as="geometry" />
        </mxCell>
        <mxCell id="8hV0YvTT84u8Rgavx3vx-8" value="Service&lt;div&gt;&lt;br&gt;&lt;/div&gt;&lt;div&gt;&lt;br&gt;&lt;/div&gt;&lt;div&gt;&lt;br&gt;&lt;/div&gt;&lt;div&gt;&lt;br&gt;&lt;/div&gt;" style="rounded=1;whiteSpace=wrap;html=1;" vertex="1" parent="1">
          <mxGeometry x="60" y="320" width="730" height="100" as="geometry" />
        </mxCell>
        <mxCell id="8hV0YvTT84u8Rgavx3vx-9" value="status_report&lt;div&gt;*&amp;nbsp;status_report_init&lt;/div&gt;&lt;div&gt;*&amp;nbsp;status_report_set_status&lt;/div&gt;" style="rounded=1;whiteSpace=wrap;html=1;" vertex="1" parent="1">
          <mxGeometry x="80" y="350" width="170" height="60" as="geometry" />
        </mxCell>
        <mxCell id="8hV0YvTT84u8Rgavx3vx-10" value="App&lt;div&gt;&lt;br&gt;&lt;/div&gt;&lt;div&gt;&lt;br&gt;&lt;/div&gt;&lt;div&gt;&lt;br&gt;&lt;/div&gt;&lt;div&gt;&lt;br&gt;&lt;/div&gt;&lt;div&gt;&lt;br&gt;&lt;/div&gt;" style="rounded=1;whiteSpace=wrap;html=1;" vertex="1" parent="1">
          <mxGeometry x="60" y="180" width="730" height="130" as="geometry" />
        </mxCell>
        <mxCell id="8hV0YvTT84u8Rgavx3vx-11" value="SWC1&lt;div&gt;*&amp;nbsp;swc1_init&lt;/div&gt;&lt;div&gt;*&amp;nbsp;swc1_task&lt;/div&gt;" style="rounded=1;whiteSpace=wrap;html=1;" vertex="1" parent="1">
          <mxGeometry x="80" y="240" width="120" height="60" as="geometry" />
        </mxCell>
        <mxCell id="8hV0YvTT84u8Rgavx3vx-15" value="platform_logger&lt;div&gt;* PLATFORM_LOGI&lt;/div&gt;" style="rounded=1;whiteSpace=wrap;html=1;" vertex="1" parent="1">
          <mxGeometry x="820" y="250" width="120" height="60" as="geometry" />
        </mxCell>
      </root>
    </mxGraphModel>
  </diagram>
</mxfile>
